<svg width="212" height="186" viewBox="0 0 212 186" fill="none" xmlns="http://www.w3.org/2000/svg">
<g clip-path="url(#clip0_2:42)">
<path d="M12.8226 0C12.6121 0.000231733 12.4102 0.0841493 12.2613 0.233344C12.1124 0.382538 12.0286 0.584822 12.0284 0.795814V27.9394C12.0286 28.1504 12.1124 28.3527 12.2613 28.5019C12.4102 28.6511 12.6121 28.735 12.8226 28.7352H105.195C105.405 28.735 105.607 28.6511 105.756 28.5019C105.905 28.3527 105.989 28.1504 105.989 27.9394V0.795814C105.989 0.584822 105.905 0.382538 105.756 0.233344C105.607 0.0841493 105.405 0.000231733 105.195 0H12.8226Z" fill="#E6E6E6"/>
<path d="M14.0185 26.7411H103.998V1.99405H14.0185V26.7411Z" fill="white"/>
<path d="M92.6407 21.607C92.4679 21.607 92.2969 21.6411 92.1372 21.7073C91.9776 21.7736 91.8325 21.8707 91.7104 21.9931C91.5882 22.1155 91.4913 22.2609 91.4252 22.4208C91.359 22.5808 91.325 22.7522 91.325 22.9253C91.325 23.0985 91.359 23.2699 91.4252 23.4298C91.4913 23.5898 91.5882 23.7351 91.7104 23.8575C91.8325 23.98 91.9776 24.0771 92.1372 24.1433C92.2969 24.2096 92.4679 24.2437 92.6407 24.2437H97.9034C98.0761 24.2437 98.2472 24.2096 98.4069 24.1433C98.5665 24.0771 98.7115 23.98 98.8337 23.8575C98.9559 23.7351 99.0528 23.5898 99.1189 23.4298C99.1851 23.2699 99.2191 23.0985 99.2191 22.9253C99.2191 22.7522 99.1851 22.5808 99.1189 22.4208C99.0528 22.2609 98.9559 22.1155 98.8337 21.9931C98.7115 21.8707 98.5665 21.7736 98.4069 21.7073C98.2472 21.6411 98.0761 21.607 97.9034 21.607H92.6407Z" fill="#0D675B"/>
<path d="M99.2192 19.05H38.4676V19.397H99.2192V19.05Z" fill="#E6E6E6"/>
<path d="M25.7688 22.0459C30.001 22.0459 33.4319 18.6082 33.4319 14.3676C33.4319 10.127 30.001 6.6893 25.7688 6.6893C21.5365 6.6893 18.1057 10.127 18.1057 14.3676C18.1057 18.6082 21.5365 22.0459 25.7688 22.0459Z" fill="#E6E6E6"/>
<path d="M38.5643 17.1131L38.3724 16.8245L44.6853 12.6076L49.0141 14.6898L55.2408 10.7037L55.325 10.7396L67.6275 15.9981L77.4913 11.1429L87.0697 15.0339L99.1051 17.4852L99.3345 17.745L87.1384 15.4363L77.5047 11.5226L67.6371 16.3792L55.2728 11.0945L49.0377 15.0858L44.7126 13.0057L38.5643 17.1131Z" fill="#3F3D56"/>
<path d="M39.5927 21.7888C39.2975 21.7936 39.016 21.9144 38.8089 22.1253C38.6018 22.3362 38.4857 22.6202 38.4857 22.916C38.4857 23.2118 38.6018 23.4958 38.8089 23.7067C39.016 23.9176 39.2975 24.0384 39.5927 24.0432H51.3622C51.6603 24.0476 51.948 23.9333 52.162 23.7253C52.3761 23.5173 52.499 23.2328 52.5038 22.9341C52.5085 22.6354 52.3948 22.347 52.1875 22.1322C51.9803 21.9175 51.6964 21.794 51.3983 21.7888C51.3863 21.7886 51.3743 21.7886 51.3622 21.7888H39.5927Z" fill="#E6E6E6"/>
<path d="M28.8512 14.2722C28.765 14.1859 28.6481 14.1374 28.5263 14.1374C28.4044 14.1374 28.2875 14.1859 28.2013 14.2722L28.2013 14.2722L26.2284 16.249V11.3744C26.2274 11.253 26.1785 11.1368 26.0924 11.0513C26.0063 10.9658 25.89 10.9178 25.7688 10.9178C25.6476 10.9178 25.5312 10.9658 25.4452 11.0513C25.3591 11.1368 25.3102 11.253 25.3092 11.3744V16.249L23.3363 14.2722C23.2503 14.186 23.1336 14.1374 23.0119 14.1373C22.8902 14.1371 22.7734 14.1853 22.6871 14.2713C22.6008 14.3573 22.5521 14.4741 22.5517 14.596C22.5512 14.718 22.5991 14.8351 22.6847 14.9218L22.6864 14.9234L25.4438 17.6864C25.53 17.7727 25.6469 17.8212 25.7688 17.8212C25.8907 17.8212 26.0076 17.7727 26.0938 17.6864L28.8512 14.9234C28.9374 14.8371 28.9858 14.72 28.9858 14.5978C28.9858 14.4757 28.9374 14.3586 28.8512 14.2722Z" fill="white"/>
<path d="M49.1635 43.4717C48.953 43.4719 48.7511 43.5558 48.6022 43.705C48.4533 43.8542 48.3695 44.0565 48.3693 44.2675V71.4111C48.3695 71.6221 48.4533 71.8244 48.6022 71.9736C48.7511 72.1227 48.953 72.2067 49.1635 72.2069H141.536C141.747 72.2067 141.948 72.1227 142.097 71.9736C142.246 71.8244 142.33 71.6221 142.33 71.4111V44.2675C142.33 44.0565 142.246 43.8542 142.097 43.705C141.948 43.5558 141.747 43.4719 141.536 43.4717H49.1635Z" fill="#E6E6E6"/>
<path d="M50.3597 70.2128H140.34V45.4658H50.3597V70.2128Z" fill="white"/>
<path d="M128.982 65.0793C128.633 65.0793 128.298 65.2182 128.052 65.4654C127.805 65.7126 127.666 66.048 127.666 66.3976C127.666 66.7473 127.805 67.0826 128.052 67.3298C128.298 67.5771 128.633 67.716 128.982 67.716H134.244C134.593 67.716 134.928 67.5771 135.174 67.3298C135.421 67.0826 135.56 66.7473 135.56 66.3976C135.56 66.048 135.421 65.7126 135.174 65.4654C134.928 65.2182 134.593 65.0793 134.244 65.0793H128.982Z" fill="#0D675B"/>
<path d="M135.56 62.522H74.8088V62.869H135.56V62.522Z" fill="#E6E6E6"/>
<path d="M62.1097 65.5179C66.3419 65.5179 69.7728 62.0802 69.7728 57.8396C69.7728 53.599 66.3419 50.1613 62.1097 50.1613C57.8775 50.1613 54.4466 53.599 54.4466 57.8396C54.4466 62.0802 57.8775 65.5179 62.1097 65.5179Z" fill="#0D675B"/>
<path d="M74.9049 60.5851L74.7127 60.2965L81.0256 56.0796L85.3548 58.1618L91.5814 54.1757L91.6656 54.2116L103.968 59.47L113.832 54.6149L123.41 58.5056L135.446 47.8246L135.675 48.0843L123.479 58.9071L113.845 54.9937L103.978 59.8503L91.6137 54.5656L85.3787 58.5569L81.0547 56.4776L74.9049 60.5851Z" fill="#3F3D56"/>
<path d="M75.9339 65.2605C75.6356 65.2556 75.3475 65.3697 75.1331 65.5777C74.9187 65.7856 74.7955 66.0704 74.7906 66.3693C74.7858 66.6683 74.8996 66.9569 75.1072 67.1717C75.3147 67.3866 75.5989 67.51 75.8973 67.5149C75.9095 67.5151 75.9217 67.5151 75.9339 67.5149H87.7034C87.9986 67.5101 88.2801 67.3893 88.4872 67.1784C88.6943 66.9675 88.8104 66.6835 88.8104 66.3877C88.8104 66.0918 88.6943 65.8078 88.4872 65.597C88.2801 65.3861 87.9986 65.2653 87.7034 65.2605H75.9339Z" fill="#E6E6E6"/>
<path d="M59.0272 57.9349C59.0699 57.9777 59.1206 58.0116 59.1763 58.0348C59.2321 58.0579 59.2918 58.0698 59.3522 58.0698C59.4126 58.0698 59.4723 58.0579 59.5281 58.0348C59.5838 58.0116 59.6345 57.9777 59.6772 57.935L59.6772 57.9349L61.6501 55.9581V60.8327C61.6501 60.9549 61.6985 61.072 61.7847 61.1583C61.8709 61.2447 61.9878 61.2932 62.1097 61.2932C62.2316 61.2932 62.3485 61.2447 62.4346 61.1583C62.5208 61.072 62.5693 60.9549 62.5693 60.8327V55.9581L64.5422 57.9349C64.5848 57.9777 64.6355 58.0116 64.6913 58.0348C64.747 58.0579 64.8068 58.0698 64.8671 58.0698C64.9275 58.0698 64.9873 58.0579 65.043 58.0348C65.0988 58.0116 65.1494 57.9777 65.1921 57.935C65.2348 57.8922 65.2687 57.8414 65.2917 57.7856C65.3148 57.7297 65.3267 57.6698 65.3267 57.6093C65.3267 57.5489 65.3148 57.489 65.2917 57.4331C65.2686 57.3772 65.2348 57.3265 65.1921 57.2837L62.4346 54.5208C62.3485 54.4344 62.2316 54.3859 62.1097 54.3859C61.9878 54.3859 61.8709 54.4344 61.7847 54.5208L59.0272 57.2837C58.9411 57.3701 58.8926 57.4872 58.8926 57.6093C58.8926 57.7315 58.9411 57.8486 59.0272 57.9349Z" fill="white"/>
<path d="M0.794244 86.9437C0.583669 86.9439 0.381786 87.0278 0.232887 87.177C0.0839872 87.3262 0.000231275 87.5285 0 87.7395V114.883C0.000231275 115.094 0.0839872 115.296 0.232887 115.446C0.381786 115.595 0.583669 115.679 0.794244 115.679H93.1664C93.377 115.679 93.5789 115.595 93.7278 115.446C93.8767 115.296 93.9604 115.094 93.9607 114.883V87.7395C93.9604 87.5285 93.8767 87.3262 93.7278 87.177C93.5789 87.0278 93.377 86.9439 93.1664 86.9437H0.794244Z" fill="#E6E6E6"/>
<path d="M1.9904 113.685H91.9705V88.9377H1.9904V113.685Z" fill="white"/>
<path d="M80.6123 108.551C80.2634 108.551 79.9287 108.69 79.682 108.937C79.4352 109.184 79.2966 109.52 79.2966 109.869C79.2966 110.219 79.4352 110.554 79.682 110.802C79.9287 111.049 80.2634 111.188 80.6123 111.188H85.8749C86.2239 111.188 86.5586 111.049 86.8053 110.802C87.0521 110.554 87.1907 110.219 87.1907 109.869C87.1907 109.52 87.0521 109.184 86.8053 108.937C86.5586 108.69 86.2239 108.551 85.8749 108.551H80.6123Z" fill="#0D675B"/>
<path d="M87.1908 105.994H26.4392V106.341H87.1908V105.994Z" fill="#E6E6E6"/>
<path d="M13.7404 108.99C17.9726 108.99 21.4035 105.552 21.4035 101.311C21.4035 97.0707 17.9726 93.633 13.7404 93.633C9.50815 93.633 6.07726 97.0707 6.07726 101.311C6.07726 105.552 9.50815 108.99 13.7404 108.99Z" fill="#0D675B"/>
<path d="M26.5353 104.057L26.3434 103.768L32.6563 99.5513L36.9852 101.633L43.2121 97.6462L55.5985 102.94L65.4623 98.0851L75.0395 101.977L87.0749 97.1329L87.3044 97.3926L75.1097 102.38L65.476 98.4662L55.6087 103.323L43.2445 98.0381L37.0096 102.03L32.6845 99.9496L26.5353 104.057Z" fill="#3F3D56"/>
<path d="M27.5643 108.732C27.2691 108.737 26.9876 108.858 26.7805 109.069C26.5734 109.28 26.4573 109.564 26.4573 109.859C26.4573 110.155 26.5734 110.439 26.7805 110.65C26.9876 110.861 27.2691 110.982 27.5643 110.987H39.3338C39.4815 110.989 39.6283 110.962 39.7657 110.908C39.9031 110.853 40.0285 110.772 40.1346 110.669C40.2408 110.566 40.3257 110.444 40.3844 110.308C40.4432 110.172 40.4747 110.026 40.4771 109.878C40.4795 109.73 40.4528 109.583 40.3985 109.445C40.3442 109.307 40.2633 109.182 40.1606 109.075C40.0578 108.969 39.9351 108.884 39.7996 108.825C39.664 108.766 39.5182 108.735 39.3704 108.732C39.3582 108.732 39.346 108.732 39.3338 108.732H27.5643Z" fill="#E6E6E6"/>
<path d="M10.658 101.407C10.7006 101.449 10.7513 101.483 10.807 101.506C10.8628 101.53 10.9226 101.542 10.9829 101.542C11.0433 101.542 11.103 101.53 11.1588 101.507C11.2145 101.483 11.2652 101.449 11.3079 101.407L11.3079 101.407L13.2808 99.4299V104.304C13.2813 104.426 13.3298 104.542 13.4156 104.628C13.5014 104.714 13.6176 104.762 13.7389 104.763C13.8602 104.763 13.9767 104.716 14.0631 104.63C14.1494 104.545 14.1986 104.429 14.2 104.307V99.4299L16.1729 101.407C16.2588 101.493 16.3756 101.542 16.4975 101.542C16.6194 101.543 16.7364 101.494 16.8228 101.408C16.9092 101.322 16.9579 101.205 16.9582 101.083C16.9586 100.961 16.9104 100.844 16.8245 100.757L16.8228 100.755L14.0654 97.9925C13.9792 97.9062 13.8623 97.8577 13.7404 97.8577C13.6185 97.8577 13.5016 97.9062 13.4154 97.9925L10.658 100.755C10.6153 100.798 10.5814 100.849 10.5583 100.905C10.5352 100.961 10.5233 101.021 10.5233 101.081C10.5233 101.142 10.5352 101.201 10.5583 101.257C10.5814 101.313 10.6153 101.364 10.658 101.407Z" fill="white"/>
<path d="M189.436 181.507L185.001 181.506L182.891 164.365L189.437 164.366L189.436 181.507Z" fill="#FFB7B7"/>
<path d="M190.567 185.815L176.266 185.814V185.633C176.266 184.154 176.853 182.735 177.897 181.689C178.94 180.643 180.356 180.056 181.832 180.055H181.833L190.567 180.056L190.567 185.815Z" fill="#2F2E41"/>
<path d="M173.156 181.507L168.721 181.506L166.611 164.365L173.157 164.366L173.156 181.507Z" fill="#FFB7B7"/>
<path d="M174.287 185.815L159.986 185.814V185.633C159.986 184.154 160.573 182.735 161.617 181.689C162.661 180.643 164.076 180.056 165.553 180.055H165.553L174.288 180.056L174.287 185.815Z" fill="#2F2E41"/>
<path d="M164.797 125.908C165.181 125.594 165.492 125.199 165.707 124.752C165.922 124.304 166.037 123.814 166.043 123.318C166.049 122.821 165.947 122.328 165.742 121.876C165.538 121.423 165.237 121.02 164.861 120.697L167.272 113.314L163.152 110.752L159.893 121.225C159.392 121.895 159.154 122.725 159.223 123.559C159.293 124.393 159.665 125.172 160.269 125.749C160.874 126.326 161.668 126.661 162.503 126.691C163.337 126.72 164.153 126.442 164.797 125.908Z" fill="#FFB7B7"/>
<path d="M169.192 121.035C169.192 121.035 165.052 143.489 165.103 147.847C165.166 153.107 167.501 175.648 167.501 175.648L173.448 174.158L174.572 148.032L179.275 131.357L181.084 152.744L182.899 175.241H189.798L191.343 118.801L168.82 118.056L169.192 121.035Z" fill="#2F2E41"/>
<path d="M189.818 75.7895L177.926 76.1619L170.492 122.338C170.492 122.338 186.288 129.6 192.977 124.386C199.667 119.173 189.818 75.7895 189.818 75.7895Z" fill="#CBCBCB"/>
<path d="M179.598 85.6578L169.563 143.378L163.245 141.516L167.705 120.663L169.935 99.8087L169.563 78.9548L177.368 75.6033L179.598 72.9966C179.598 72.9966 184.058 78.5824 179.598 85.6578Z" fill="#2F2E41"/>
<path d="M184.801 84.2489L185.544 144.868L200.782 142.261L199.667 86.0302L201.154 78.21L193.721 74.8585L190.711 72.9966C190.711 72.9966 184.058 75.0198 184.801 84.2489Z" fill="#2F2E41"/>
<path d="M172.908 80.072L169.563 78.9549L164.732 100.553L160.644 117.683L166.59 118.801L172.165 100.181L172.908 80.072Z" fill="#2F2E41"/>
<path d="M206.415 129.533C206.031 129.219 205.72 128.824 205.505 128.376C205.29 127.929 205.175 127.439 205.169 126.942C205.163 126.446 205.265 125.953 205.469 125.501C205.674 125.048 205.975 124.645 206.351 124.322L203.94 116.939L208.06 114.377L211.318 124.85C211.819 125.52 212.058 126.35 211.988 127.184C211.919 128.017 211.547 128.797 210.943 129.374C210.338 129.951 209.543 130.286 208.709 130.316C207.875 130.345 207.058 130.067 206.415 129.533Z" fill="#FFB7B7"/>
<path d="M197.942 79.3471L201.287 78.2299L206.118 99.8285L210.568 121.308L203.875 122.295L198.685 99.4561L197.942 79.3471Z" fill="#2F2E41"/>
<path d="M188.65 69.9509C192.654 67.7583 194.125 62.7292 191.936 58.7182C189.748 54.7072 184.729 53.2331 180.726 55.4257C176.723 57.6183 175.252 62.6474 177.44 66.6584C179.628 70.6694 184.647 72.1435 188.65 69.9509Z" fill="#FFB7B7"/>
<path d="M205.278 186H138.29C138.213 186 138.139 185.969 138.084 185.915C138.03 185.86 137.999 185.786 137.999 185.708C137.999 185.631 138.03 185.557 138.084 185.502C138.139 185.447 138.213 185.416 138.29 185.416H205.278C205.355 185.416 205.429 185.447 205.484 185.502C205.539 185.557 205.569 185.631 205.569 185.708C205.569 185.786 205.539 185.86 205.484 185.915C205.429 185.969 205.355 186 205.278 186Z" fill="#CBCBCB"/>
<path d="M181.808 51.8576C189.705 49.5759 191.946 56.134 191.946 56.134C195.753 58.6643 193.369 61.8367 193.369 61.8367C194.33 62.0505 192.41 67.6822 191.769 67.5396C191.427 67.4636 190.549 68.5144 189.804 69.511C189.548 69.5107 189.293 69.5352 189.042 69.5843L190.488 64.225C190.488 64.225 185.615 63.4768 184.121 61.1245C182.691 58.874 177.985 58.1635 176.646 59.6667C176.567 59.2345 176.404 58.8218 176.168 58.4516C175.985 58.1704 175.746 57.9302 175.466 57.7462C176.65 52.7041 181.808 51.8576 181.808 51.8576Z" fill="#2F2E41"/>
</g>
<defs>
<clipPath id="clip0_2:42">
<rect width="212" height="186" fill="white"/>
</clipPath>
</defs>
</svg>
