<svg width="160" height="114" viewBox="0 0 160 114" fill="none" xmlns="http://www.w3.org/2000/svg">
<path d="M31.9209 102.918C34.8277 106.82 40.8616 107.231 40.8616 107.231C40.8616 107.231 42.1827 101.315 39.2759 97.4138C36.3691 93.5121 30.3351 93.1014 30.3351 93.1014C30.3351 93.1014 29.014 99.0166 31.9209 102.918Z" fill="#E6E6E6"/>
<path d="M46.7287 104.385C44.8106 106.96 40.829 107.231 40.829 107.231C40.829 107.231 39.9572 103.327 41.8754 100.753C43.7935 98.1782 47.7751 97.9072 47.7751 97.9072C47.7751 97.9072 48.6468 101.81 46.7287 104.385Z" fill="#E6E6E6"/>
<path d="M159.893 107.043H26.0392V107.495H159.893V107.043Z" fill="#3F3D56"/>
<path d="M154.214 23.9856L155.38 24.57C155.38 24.57 161.696 40.4452 159.558 44.2436C157.42 48.042 150.715 55.1517 150.715 55.1517L149.452 51.5482L154.619 40.3218L154.214 23.9856Z" fill="#575A89"/>
<path opacity="0.1" d="M154.214 23.9856L155.38 24.57C155.38 24.57 161.696 40.4452 159.558 44.2436C157.42 48.042 150.715 55.1517 150.715 55.1517L149.452 51.5482L154.619 40.3218L154.214 23.9856Z" fill="black"/>
<path d="M152.95 103.362C152.95 103.362 154.602 107.16 153.728 107.452C152.853 107.745 151.784 107.745 150.715 107.745C149.647 107.745 148.383 107.355 148.189 106.965C147.995 106.576 148.966 104.044 148.966 104.044L152.95 103.362Z" fill="#575A89"/>
<path d="M130.698 105.31C130.698 105.31 131.766 108.719 131.281 108.913C130.795 109.108 129.24 109.985 128.365 109.693C127.491 109.4 126.13 108.719 125.839 108.426C125.547 108.134 125.839 106.576 125.839 106.576L127.199 104.628L130.698 105.31Z" fill="#575A89"/>
<path d="M149.841 54.6648L151.234 55.1517C151.234 55.1517 151.59 58.4632 151.201 59.6319C150.813 60.8006 149.938 69.2739 150.424 71.027C150.91 72.7801 150.618 75.6045 150.618 75.6045C150.618 75.6045 153.533 85.1492 152.95 87.1945C152.367 89.2397 152.465 92.1615 153.048 93.6225C153.631 95.0834 154.117 95.6678 153.825 96.8365C153.533 98.0052 152.95 98.5896 153.533 99.5635C154.117 100.537 155.283 100.83 154.7 101.706C154.117 102.583 153.533 103.264 153.728 103.849C153.922 104.433 148.578 105.505 148.092 104.628C148.092 104.628 149.646 103.264 148.092 102.485C146.537 101.706 147.023 98.7843 147.023 98.7843C147.023 98.7843 144.302 87.584 144.399 86.7075C144.496 85.8309 140.123 72.1957 140.123 72.1957C140.123 72.1957 133.71 91.6746 133.321 92.5511C132.933 93.4277 133.807 95.5704 133.321 96.1547C132.835 96.7391 133.516 98.2 132.835 98.7844C132.155 99.3687 134.001 101.511 132.835 102.291C131.669 103.07 131.086 105.505 131.183 105.992C131.281 106.478 126.325 105.894 126.325 105.212C126.325 104.531 126.422 103.946 125.936 102.778C125.45 101.609 125.159 100.83 125.547 100.44C125.936 100.05 126.228 99.5635 125.839 98.2C125.45 96.8365 126.422 92.6485 126.13 91.8694C125.839 91.0902 125.936 85.8309 125.936 85.8309C125.936 85.8309 126.908 78.1368 126.616 76.8707C126.325 75.6045 126.616 75.3123 126.713 74.8254C126.811 74.3384 127.394 69.0791 127.782 68.3C128.171 67.5208 128.657 54.1778 130.892 53.496C133.127 52.8143 149.841 54.6648 149.841 54.6648Z" fill="#2F2E41"/>
<path d="M150.618 106.868C150.618 106.868 154.116 106.284 154.311 106.868C154.505 107.452 155.088 112.03 153.728 112.127C152.367 112.225 150.035 112.517 149.646 111.64C149.258 110.764 147.411 110.179 147.411 110.179C147.411 110.179 144.691 109.4 144.691 108.524C144.691 107.647 144.788 106.284 145.274 106.186C145.759 106.089 147.703 105.018 147.703 104.628C147.703 104.238 150.618 106.868 150.618 106.868Z" fill="#2F2E41"/>
<path d="M128.754 108.426C128.754 108.426 131.281 107.647 131.864 108.134C132.447 108.621 133.224 113.978 131.864 113.88C130.503 113.783 126.908 114.367 126.713 113.588C126.519 112.809 123.895 112.614 123.895 112.614C123.895 112.614 121.077 111.251 121.272 109.79C121.466 108.329 121.758 107.842 122.924 107.745C124.09 107.647 124.964 106.284 125.061 106.186C125.159 106.089 126.015 105.377 126.121 106.171C126.228 106.965 127.491 108.719 128.754 108.426Z" fill="#2F2E41"/>
<path d="M136.722 14.0514C139.996 14.0514 142.65 11.3915 142.65 8.11033C142.65 4.82918 139.996 2.16928 136.722 2.16928C133.449 2.16928 130.795 4.82918 130.795 8.11033C130.795 11.3915 133.449 14.0514 136.722 14.0514Z" fill="#A0616A"/>
<path d="M141.873 9.47385C141.873 9.47385 142.261 15.9993 143.719 16.5836C145.176 17.168 136.334 17.168 136.334 17.168C136.334 17.168 136.236 13.0774 134.973 12.1035C133.71 11.1296 141.873 9.47385 141.873 9.47385Z" fill="#A0616A"/>
<path d="M144.205 15.1227C144.205 15.1227 138.18 12.8827 136.042 16.3888C136.042 16.3888 129.24 19.6029 128.754 21.5507C128.268 23.4986 132.835 38.1078 132.835 38.1078C132.835 38.1078 132.835 50.1847 131.864 51.4508C130.892 52.7169 129.046 54.0804 130.309 54.3726C131.572 54.6648 151.396 56.8075 151.298 55.5413C151.201 54.2752 149.938 53.2039 151.298 52.4247C152.659 51.6456 151.493 50.769 152.367 48.2368C153.242 45.7045 155.38 24.7648 155.38 24.7648C155.38 24.7648 153.922 22.1351 153.631 21.8429C153.339 21.5507 144.205 15.1227 144.205 15.1227Z" fill="#575A89"/>
<path d="M126.811 57.7814C126.811 57.7814 123.021 66.352 126.325 67.5208C129.629 68.6895 129.434 58.4631 129.434 58.4631L126.811 57.7814Z" fill="#A0616A"/>
<path d="M139.566 9.21522C139.222 8.52519 138.708 7.72916 137.939 7.77118C137.551 7.79242 137.216 8.0347 136.87 8.21255C136.523 8.3904 136.08 8.50065 135.763 8.27399C135.3 7.94246 135.444 7.15611 135.029 6.76498C134.577 6.33799 133.668 6.57638 133.376 6.02665C133.22 5.73312 133.346 5.36893 133.278 5.0435C132.805 5.08401 132.329 5.02854 131.878 4.88041C131.439 4.70218 131.059 4.28922 131.071 3.81492C131.084 3.65333 131.13 3.49599 131.204 3.35212C131.279 3.20824 131.381 3.08072 131.505 2.97703C132.103 2.43263 132.967 2.32824 133.704 1.99807C134.291 1.73532 134.801 1.32584 135.377 1.04162C136.37 0.552457 137.514 0.457597 138.617 0.542047C140.289 0.670094 141.979 1.22618 143.192 2.38708C144.404 3.54798 145.046 5.37945 144.523 6.97617C144.227 7.88095 143.599 8.64145 143.248 9.52658C143.034 10.1323 142.885 10.7595 142.804 11.3973L142.558 12.91C142.597 12.6746 142.081 12.0841 141.912 11.9436C141.543 11.6371 141.006 11.7411 140.664 11.4572C140.157 11.0373 139.864 9.81387 139.566 9.21522Z" fill="#2F2E41"/>
<path opacity="0.1" d="M130.989 20.869L129.434 21.8429C129.434 21.8429 126.908 37.1338 127.199 39.2765C127.491 41.4191 126.033 53.496 126.519 54.47C127.005 55.4439 127.199 55.6387 127.199 56.2231C127.199 56.8074 125.839 58.9501 126.713 59.3397C127.588 59.7293 130.795 60.411 130.795 59.3397C130.795 58.2683 130.212 56.8074 131.281 56.1257C132.35 55.4439 133.127 51.0612 133.127 51.0612C133.127 51.0612 133.613 46.581 134.099 45.7045C134.585 44.8279 135.265 41.6139 135.265 40.2504C135.265 38.8869 136.431 33.3354 135.751 30.511C135.07 27.6866 134.876 20.0898 130.989 20.869Z" fill="black"/>
<path d="M130.309 20.5768L128.754 21.5507C128.754 21.5507 126.228 36.8416 126.519 38.9843C126.811 41.127 125.353 53.2038 125.839 54.1778C126.325 55.1517 126.519 55.3465 126.519 55.9309C126.519 56.5153 125.159 58.6579 126.033 59.0475C126.908 59.4371 130.115 60.1188 130.115 59.0475C130.115 57.9762 129.531 56.5153 130.6 55.8335C131.669 55.1517 132.447 50.769 132.447 50.769C132.447 50.769 132.933 46.2889 133.418 45.4123C133.904 44.5358 134.584 41.3218 134.584 39.9582C134.584 38.5947 135.751 33.0432 135.07 30.2188C134.39 27.3944 134.196 19.7976 130.309 20.5768Z" fill="#575A89"/>
<path d="M114.415 0H0V57.5319H114.415V0Z" fill="#E6E6E6"/>
<path d="M109.161 4.68057H5.25372V52.8514H109.161V4.68057Z" fill="white"/>
<path d="M7.28853 8.58945L7.01337 8.86524L20.9664 22.8496L25.3444 18.4617L33.0303 26.1652L42.4676 16.7065L58.5207 32.796L65.8175 25.4825L81.7733 41.4746L90.7241 32.5035L107.126 48.9425L107.401 48.6667L90.7241 31.9519L81.7733 40.923L65.8175 24.9311L58.5207 32.2444L42.4676 16.1549L33.0303 25.6136L25.3444 17.9101L20.9664 22.2983L7.28853 8.58945Z" fill="#0D675B"/>
<path d="M43.1487 19.0636C44.4383 19.0636 45.4837 18.0158 45.4837 16.7233C45.4837 15.4308 44.4383 14.383 43.1487 14.383C41.8591 14.383 40.8137 15.4308 40.8137 16.7233C40.8137 18.0158 41.8591 19.0636 43.1487 19.0636Z" fill="#0D675B"/>
<path d="M58.1316 34.4704C59.4212 34.4704 60.4666 33.4226 60.4666 32.1301C60.4666 30.8376 59.4212 29.7898 58.1316 29.7898C56.842 29.7898 55.7966 30.8376 55.7966 32.1301C55.7966 33.4226 56.842 34.4704 58.1316 34.4704Z" fill="#0D675B"/>
<path d="M90.6269 34.4704C91.9165 34.4704 92.9619 33.4226 92.9619 32.1301C92.9619 30.8376 91.9165 29.7898 90.6269 29.7898C89.3373 29.7898 88.2919 30.8376 88.2919 32.1301C88.2919 33.4226 89.3373 34.4704 90.6269 34.4704Z" fill="#0D675B"/>
</svg>
